<?xml version="1.0" encoding="UTF-8"?>
<svg width="512" height="512" viewBox="0 0 512 512" fill="none" xmlns="http://www.w3.org/2000/svg">
  <rect width="512" height="512" fill="#FFFFFF"/>
  <path d="M256 128C179.96 128 128 179.96 128 256C128 332.04 179.96 384 256 384C332.04 384 384 332.04 384 256C384 179.96 332.04 128 256 128ZM256 352C197.6 352 160 314.4 160 256C160 197.6 197.6 160 256 160C314.4 160 352 197.6 352 256C352 314.4 314.4 352 256 352Z" fill="#FF56A1"/>
  <path d="M256 192C219.49 192 192 219.49 192 256C192 292.51 219.49 320 256 320C292.51 320 320 292.51 320 256C320 219.49 292.51 192 256 192ZM256 288C237.6 288 224 274.4 224 256C224 237.6 237.6 224 256 224C274.4 224 288 237.6 288 256C288 274.4 274.4 288 256 288Z" fill="#FF9350"/>
</svg> 